<?xml version="1.0" encoding="utf-8"?>
<!-- Generator: Adobe Illustrator 16.0.3, SVG Export Plug-In . SVG Version: 6.00 Build 0)  -->
<!DOCTYPE svg PUBLIC "-//W3C//DTD SVG 1.1//EN" "http://www.w3.org/Graphics/SVG/1.1/DTD/svg11.dtd">
<svg version="1.1" id="Ebene_1" xmlns="http://www.w3.org/2000/svg" xmlns:xlink="http://www.w3.org/1999/xlink" x="0px" y="0px"
	 width="745.448px" height="705.869px" viewBox="0 0 745.448 705.869" enable-background="new 0 0 745.448 705.869"
	 xml:space="preserve">
<line fill="none" stroke="#0065BD" stroke-width="3" stroke-miterlimit="10" x1="247.549" y1="332.446" x2="0" y2="332.446"/>
<g>
	<g>
		<g>
			<path fill="none" stroke="#A8A8A7" stroke-width="12" stroke-miterlimit="10" d="M134.374,330.612c0,0-0.023-1.515-0.069-4.45
				c-0.021-2.938-0.151-7.294,0.136-13.005c0.401-11.386,1.689-28.285,6.769-49.291c2.445-10.517,6.06-21.969,10.861-34.121
				c1.25-3.016,2.458-6.133,3.876-9.223c1.421-3.088,2.894-6.229,4.418-9.42c1.609-3.142,3.295-6.321,5.024-9.553
				c1.741-3.224,3.692-6.395,5.619-9.661c7.898-12.929,17.481-26.021,28.972-38.672c11.497-12.63,24.848-24.897,40.252-35.889
				c15.375-11.01,32.714-20.857,51.765-28.778c19.044-7.917,39.854-13.692,61.647-16.936c2.723-0.468,5.463-0.719,8.217-1.047
				c2.752-0.296,5.521-0.631,8.297-0.853c2.778-0.173,5.566-0.347,8.362-0.521c1.4-0.075,2.803-0.149,4.208-0.224
				c1.406-0.022,2.815-0.043,4.226-0.065c2.826-0.02,5.661-0.039,8.504-0.058c2.847,0.046,5.71,0.184,8.58,0.298
				c5.744,0.164,11.519,0.791,17.331,1.343c11.594,1.404,23.329,3.348,34.952,6.382c1.456,0.368,2.914,0.737,4.374,1.106
				c1.46,0.369,2.896,0.828,4.347,1.247c2.892,0.878,5.79,1.758,8.695,2.64c2.875,0.972,5.742,1.995,8.618,3.024
				c1.435,0.522,2.879,1.027,4.307,1.577l4.258,1.727c22.77,9.18,44.633,21.814,64.629,37.469c2.478,1.982,4.949,3.986,7.413,6.011
				c2.436,2.055,4.801,4.199,7.191,6.327c1.186,1.074,2.393,2.13,3.555,3.233l3.452,3.353l3.438,3.384
				c1.149,1.128,2.285,2.27,3.375,3.457c2.206,2.351,4.401,4.724,6.583,7.115c2.161,2.41,4.223,4.915,6.319,7.398
				c1.037,1.25,2.093,2.489,3.105,3.763l2.984,3.872l2.963,3.901c0.99,1.3,1.967,2.612,2.89,3.965
				c1.875,2.685,3.734,5.388,5.578,8.109c1.817,2.738,3.524,5.556,5.266,8.357c0.858,1.408,1.74,2.805,2.566,4.235l2.429,4.326
				l2.402,4.352c0.806,1.45,1.587,2.913,2.314,4.406c1.486,2.97,2.954,5.957,4.401,8.958c1.414,3.016,2.711,6.092,4.041,9.158
				c0.651,1.539,1.329,3.069,1.944,4.624l1.79,4.691l1.758,4.712c0.589,1.572,1.159,3.15,1.663,4.751
				c1.044,3.19,2.066,6.394,3.065,9.609c0.977,3.22,1.801,6.483,2.674,9.739l1.261,4.899l1.081,4.938
				c0.688,3.3,1.443,6.601,2.01,9.924c2.404,13.295,3.732,26.75,4.28,40.214c0.338,13.465-0.103,27.048-1.651,40.601
				c-0.352,3.389-0.895,6.762-1.372,10.142l-0.769,5.064l-0.951,5.038c-0.667,3.353-1.29,6.72-2.066,10.051
				c-0.801,3.326-1.627,6.648-2.479,9.966c-0.408,1.664-0.883,3.308-1.377,4.945l-1.479,4.919l-1.516,4.908
				c-0.525,1.629-1.113,3.235-1.677,4.852c-1.154,3.221-2.279,6.458-3.526,9.643c-1.28,3.17-2.586,6.332-3.915,9.483
				c-0.648,1.584-1.353,3.14-2.082,4.683l-2.179,4.638l-2.213,4.621c-0.756,1.53-1.568,3.027-2.358,4.539
				c-1.606,3.007-3.185,6.036-4.878,8.99c-1.72,2.938-3.463,5.863-5.227,8.774c-0.866,1.466-1.789,2.893-2.728,4.31l-2.811,4.251
				l-2.842,4.23c-0.967,1.395-1.979,2.754-2.974,4.128c-2.012,2.729-3.995,5.483-6.085,8.146c-2.111,2.645-4.243,5.274-6.393,7.887
				c-1.062,1.318-2.171,2.591-3.295,3.851l-3.369,3.783l-3.396,3.757c-1.146,1.238-2.336,2.431-3.509,3.641
				c-2.364,2.402-4.711,4.822-7.135,7.155c-2.452,2.304-4.92,4.589-7.403,6.854c-20.028,17.918-42.443,32.942-66.298,44.423
				l-4.467,2.157c-1.499,0.694-3.018,1.342-4.527,2.006c-3.027,1.313-6.055,2.618-9.097,3.871c-3.068,1.182-6.143,2.34-9.221,3.474
				c-1.542,0.556-3.071,1.152-4.626,1.657c-1.558,0.505-3.112,1.009-4.665,1.513c-12.416,4.112-25.061,7.084-37.666,9.446
				c-6.316,1.029-12.623,2.118-18.916,2.723c-3.146,0.335-6.291,0.688-9.424,0.945c-3.129,0.208-6.254,0.394-9.373,0.558
				c-1.56,0.077-3.117,0.154-4.673,0.23c-1.557,0.021-3.111,0.043-4.663,0.064c-3.106,0.031-6.205,0.042-9.296,0.031
				c-3.093-0.043-6.187-0.207-9.267-0.336c-3.082-0.162-6.154-0.253-9.216-0.566c-24.503-2.011-48.33-6.965-70.481-14.515
				c-22.16-7.552-42.695-17.477-61.188-28.97c-18.524-11.472-34.918-24.619-49.273-38.444
				c-14.349-13.846-26.606-28.446-36.924-43.083c-2.532-3.693-5.073-7.303-7.387-10.976c-2.303-3.682-4.545-7.321-6.695-10.93
				c-2.065-3.659-4.062-7.276-5.989-10.846c-1.924-3.57-3.623-7.178-5.345-10.685c-6.692-14.117-11.918-27.596-15.712-40.063
				c-7.781-24.915-10.721-45.37-12.133-59.205c-0.793-6.946-1.012-12.263-1.219-15.855c-0.177-3.593-0.268-5.447-0.268-5.447"/>
			<path fill="none" stroke="#A8A8A7" stroke-width="12" stroke-miterlimit="10" d="M191.067,330.8c0,0-0.027-1.173-0.081-3.445
				c-0.037-2.274-0.196-5.654-0.002-10.07c0.208-8.818,1.064-21.884,4.826-38.159c1.786-8.157,4.515-17.033,8.125-26.486
				c0.952-2.341,1.844-4.776,2.924-7.178c1.095-2.401,2.21-4.849,3.347-7.341c1.253-2.44,2.528-4.923,3.826-7.45
				c1.319-2.52,2.828-4.987,4.288-7.546c6.035-10.105,13.386-20.369,22.238-30.316c8.859-9.926,19.165-19.614,31.103-28.296
				c11.912-8.703,25.362-16.514,40.168-22.852c14.804-6.331,31.013-10.979,48.066-13.699c2.127-0.402,4.279-0.597,6.437-0.878
				c2.158-0.249,4.326-0.546,6.506-0.739c2.183-0.154,4.373-0.309,6.57-0.464c1.102-0.072,2.204-0.144,3.309-0.217
				c1.105-0.024,2.213-0.048,3.322-0.073c2.224-0.039,4.453-0.077,6.69-0.116c2.238,0.017,4.486,0.115,6.744,0.18
				c4.52,0.065,9.05,0.551,13.623,0.92c9.108,1.038,18.343,2.443,27.486,4.76l3.445,0.829c1.151,0.274,2.278,0.636,3.421,0.954
				c2.279,0.667,4.563,1.334,6.854,2.003c2.259,0.772,4.523,1.547,6.792,2.323c1.132,0.399,2.274,0.779,3.401,1.202l3.356,1.335
				c17.979,7.047,35.304,16.857,51.215,29.078c1.965,1.563,3.933,3.127,5.902,4.694c1.939,1.606,3.816,3.293,5.726,4.955
				c0.945,0.84,1.912,1.661,2.838,2.526l2.748,2.632l2.744,2.65c0.921,0.881,1.83,1.774,2.695,2.71
				c1.751,1.858,3.504,3.719,5.26,5.582c1.729,1.89,3.365,3.866,5.047,5.813c0.83,0.982,1.68,1.951,2.49,2.952l2.382,3.048
				l2.375,3.065c0.797,1.02,1.582,2.05,2.315,3.118c1.489,2.124,2.981,4.25,4.474,6.379c1.459,2.154,2.816,4.379,4.221,6.582
				c0.689,1.109,1.405,2.205,2.067,3.332l1.945,3.411l1.935,3.427c0.652,1.14,1.284,2.292,1.863,3.472
				c1.183,2.352,2.365,4.706,3.55,7.061c1.141,2.378,2.176,4.809,3.257,7.226c0.526,1.214,1.082,2.418,1.578,3.646l1.441,3.706
				l1.429,3.72c0.481,1.239,0.948,2.485,1.351,3.752l2.497,7.593c0.799,2.544,1.459,5.13,2.18,7.705l1.042,3.875l0.882,3.913
				c0.562,2.615,1.203,5.226,1.668,7.863c2,10.542,3.131,21.24,3.679,31.976c0.338,10.736,0.095,21.563-1.05,32.362
				c-0.25,2.701-0.68,5.385-1.031,8.08l-0.568,4.039l-0.732,4.014c-0.516,2.671-0.974,5.36-1.573,8.017l-1.91,7.949
				c-0.307,1.33-0.677,2.642-1.064,3.947l-1.148,3.926l-1.168,3.924c-0.405,1.302-0.872,2.582-1.311,3.873
				c-0.904,2.572-1.768,5.165-2.742,7.711c-1.021,2.53-2.042,5.06-3.063,7.587c-0.501,1.271-1.055,2.515-1.632,3.748l-1.71,3.713
				l-1.729,3.707c-0.592,1.227-1.239,2.424-1.86,3.636c-1.269,2.408-2.497,4.844-3.832,7.215c-1.375,2.35-2.75,4.698-4.122,7.044
				c-0.678,1.181-1.409,2.325-2.153,3.461l-2.223,3.416l-2.239,3.406c-0.765,1.122-1.571,2.212-2.358,3.316
				c-1.597,2.193-3.156,4.419-4.813,6.563c-1.691,2.12-3.381,4.238-5.068,6.353c-0.837,1.067-1.72,2.092-2.616,3.104l-2.676,3.049
				l-2.69,3.036c-0.908,1.001-1.861,1.957-2.793,2.935c-1.882,1.936-3.74,3.898-5.668,5.783c-1.967,1.849-3.931,3.694-5.892,5.537
				c-15.945,14.483-33.82,26.684-52.885,36.032l-3.566,1.766c-1.197,0.565-2.414,1.088-3.622,1.629
				c-2.421,1.068-4.839,2.14-7.271,3.17c-2.465,0.947-4.925,1.894-7.379,2.837c-1.234,0.455-2.454,0.953-3.7,1.364l-3.737,1.235
				c-9.936,3.396-20.08,5.829-30.198,7.824c-5.078,0.847-10.14,1.795-15.209,2.301c-2.532,0.285-5.063,0.599-7.587,0.826
				c-2.528,0.167-5.048,0.334-7.561,0.5c-1.258,0.074-2.515,0.148-3.77,0.223c-1.257,0.024-2.511,0.048-3.764,0.071
				c-2.509,0.029-5.011,0.059-7.504,0.088c-2.496-0.015-4.989-0.141-7.476-0.223c-2.485-0.115-4.969-0.149-7.436-0.397
				c-19.762-1.487-38.989-5.314-56.899-11.278c-17.915-5.967-34.562-13.857-49.592-23.042
				c-15.058-9.163-28.407-19.731-40.123-30.853c-11.711-11.142-21.736-22.914-30.191-34.728c-2.065-2.986-4.163-5.892-6.057-8.86
				c-1.881-2.978-3.725-5.915-5.497-8.827c-1.687-2.961-3.326-5.885-4.917-8.768c-1.587-2.883-2.968-5.807-4.393-8.64
				c-5.501-11.419-9.841-22.322-12.976-32.428c-6.465-20.185-8.972-36.807-10.191-48.073c-0.7-5.651-0.888-9.99-1.081-12.919
				c-0.168-2.931-0.256-4.443-0.256-4.443"/>
			<path fill="none" stroke="#A8A8A7" stroke-width="12" stroke-miterlimit="10" d="M247.76,330.989c0,0-0.032-0.831-0.094-2.441
				c-0.051-1.611-0.24-4.014-0.14-7.135c0.016-6.249,0.44-15.483,2.885-27.027c1.126-5.796,2.97-12.096,5.39-18.852
				c0.654-1.668,1.229-3.419,1.973-5.134c0.744-1.722,1.502-3.476,2.274-5.262c0.861-1.751,1.737-3.535,2.628-5.348
				c0.898-1.816,1.965-3.579,2.958-5.431c4.171-7.283,9.291-14.718,15.504-21.96c6.221-7.222,13.482-14.33,21.953-20.703
				c8.449-6.395,18.011-12.171,28.572-16.924c10.563-4.745,22.173-8.266,34.485-10.463c1.532-0.336,3.096-0.476,4.656-0.709
				c1.563-0.202,3.132-0.461,4.715-0.626c1.588-0.136,3.181-0.271,4.779-0.408l2.407-0.21l2.42-0.08
				c1.621-0.058,3.246-0.116,4.877-0.174c1.63-0.013,3.264,0.046,4.907,0.062c3.297-0.034,6.582,0.312,9.917,0.498
				c6.621,0.671,13.355,1.538,20.019,3.139l2.517,0.552c0.843,0.179,1.661,0.443,2.496,0.66c1.666,0.455,3.337,0.91,5.012,1.367
				c1.651,0.539,3.308,1.079,4.966,1.62c0.829,0.277,1.67,0.532,2.495,0.826l2.457,0.944c13.188,4.915,25.974,11.9,37.801,20.687
				c1.462,1.124,2.926,2.25,4.392,3.378c1.443,1.159,2.831,2.388,4.259,3.583c0.704,0.607,1.433,1.192,2.122,1.819l2.043,1.912
				l2.052,1.917c0.691,0.634,1.374,1.278,2.015,1.963l3.937,4.048c1.295,1.371,2.508,2.818,3.774,4.229
				c0.622,0.714,1.268,1.413,1.875,2.141l1.779,2.224l1.786,2.229c0.604,0.74,1.197,1.487,1.742,2.271l3.369,4.648
				c1.101,1.57,2.109,3.202,3.176,4.806c0.521,0.809,1.069,1.604,1.568,2.428l1.462,2.497l1.467,2.502
				c0.5,0.831,0.981,1.671,1.412,2.538l2.697,5.164c0.869,1.74,1.642,3.526,2.473,5.294c0.401,0.889,0.836,1.768,1.213,2.668
				l1.094,2.721l1.098,2.728c0.375,0.908,0.737,1.82,1.039,2.753l1.928,5.578c0.622,1.87,1.118,3.777,1.687,5.67l0.823,2.851
				l0.683,2.888c0.435,1.93,0.962,3.851,1.326,5.802c1.596,7.788,2.529,15.729,3.077,23.737c0.338,8.008,0.291,16.078-0.448,24.124
				c-0.149,2.016-0.465,4.009-0.689,6.02l-0.369,3.014l-0.514,2.99c-0.363,1.989-0.657,4-1.08,5.981l-1.341,5.934
				c-0.206,0.996-0.473,1.975-0.753,2.949l-0.818,2.933l-0.819,2.938c-0.287,0.975-0.632,1.93-0.945,2.896
				c-0.654,1.922-1.256,3.87-1.958,5.778l-2.21,5.689c-0.354,0.957-0.757,1.891-1.181,2.815l-1.243,2.788l-1.246,2.792
				c-0.428,0.924-0.908,1.819-1.361,2.732c-0.93,1.809-1.811,3.652-2.787,5.438c-1.007,1.772-2.013,3.544-3.018,5.313
				c-0.488,0.896-1.028,1.759-1.579,2.614l-1.635,2.58l-1.637,2.582c-0.562,0.85-1.163,1.67-1.742,2.506
				c-1.183,1.656-2.317,3.353-3.542,4.978c-1.25,1.608-2.498,3.215-3.745,4.819c-0.611,0.815-1.268,1.591-1.935,2.357l-1.984,2.315
				l-1.985,2.315c-0.672,0.763-1.386,1.483-2.076,2.228c-1.401,1.469-2.77,2.974-4.201,4.411c-1.463,1.409-2.924,2.815-4.382,4.221
				c-11.86,11.049-25.197,20.425-39.471,27.641l-2.666,1.374c-0.896,0.438-1.811,0.835-2.716,1.254
				c-1.819,0.824-3.634,1.646-5.444,2.467c-1.851,0.735-3.696,1.469-5.537,2.201c-0.927,0.354-1.838,0.755-2.775,1.07l-2.809,0.959
				c-7.455,2.679-15.1,4.573-22.732,6.202c-3.838,0.664-7.656,1.471-11.501,1.878c-1.92,0.236-3.835,0.51-5.751,0.708
				c-1.922,0.147-3.837,0.295-5.746,0.441l-2.867,0.216l-2.863,0.079c-1.91,0.048-3.814,0.096-5.713,0.144
				c-1.899,0.013-3.792-0.074-5.684-0.109c-1.89-0.067-3.784-0.047-5.656-0.229c-15.021-0.963-29.647-3.664-43.318-8.042
				c-13.67-4.383-26.428-10.238-37.995-17.115c-23.168-13.796-41.277-31.676-54.431-49.631c-1.599-2.28-3.254-4.48-4.726-6.746
				c-1.458-2.28-2.891-4.522-4.299-6.725c-1.306-2.271-2.587-4.501-3.846-6.688c-1.25-2.197-2.314-4.437-3.441-6.596
				c-4.31-8.722-7.765-17.048-10.24-24.793c-5.147-15.453-7.222-28.243-8.249-36.94c-0.606-4.357-0.765-7.719-0.943-9.984
				c-0.161-2.268-0.244-3.438-0.244-3.438"/>
			<path fill="none" stroke="#A8A8A7" stroke-width="12" stroke-miterlimit="10" d="M304.453,331.177c0,0-0.036-0.489-0.106-1.437
				c-0.065-0.948-0.284-2.373-0.278-4.2c-0.177-3.68-0.185-9.082,0.943-15.895c0.466-3.436,1.424-7.159,2.653-11.217
				c0.357-0.994,0.614-2.061,1.021-3.09c0.412-1.026,0.813-2.086,1.203-3.184c0.477-1.052,0.965-2.127,1.429-3.246
				c0.477-1.112,1.101-2.17,1.628-3.315c4.603-8.891,11.597-18.494,21.574-26.715c4.985-4.086,10.659-7.828,16.975-10.996
				c6.323-3.159,13.333-5.554,20.904-7.227c0.937-0.27,1.911-0.354,2.876-0.54c0.969-0.154,1.937-0.376,2.923-0.513
				c0.991-0.104,1.986-0.221,2.988-0.351l1.508-0.203l1.518-0.087c1.014-0.065,2.034-0.143,3.063-0.233
				c1.021-0.042,2.04-0.023,3.071-0.057c2.073-0.132,4.113,0.072,6.21,0.075c4.134,0.305,8.368,0.634,12.551,1.518l1.589,0.275
				c0.534,0.084,1.044,0.25,1.57,0.367c1.046,0.255,2.103,0.499,3.169,0.73c1.045,0.306,2.092,0.612,3.142,0.918
				c0.526,0.154,1.064,0.284,1.589,0.45l1.557,0.552c8.397,2.783,16.644,6.944,24.387,12.295c0.947,0.694,1.907,1.381,2.881,2.062
				c0.947,0.711,1.846,1.483,2.791,2.211c0.464,0.374,0.954,0.724,1.406,1.113l1.338,1.192l1.359,1.183
				c0.463,0.387,0.919,0.783,1.334,1.216c0.857,0.844,1.728,1.681,2.613,2.515c0.863,0.851,1.651,1.769,2.503,2.643
				c0.415,0.446,0.855,0.874,1.26,1.331l1.177,1.4l1.198,1.394c0.409,0.459,0.813,0.925,1.167,1.423
				c12.327,15.351,20.352,34.764,22.125,55.911c0.338,5.28,0.488,10.592,0.153,15.885c-0.049,1.329-0.249,2.632-0.348,3.959
				l-0.17,1.988l-0.295,1.965c-0.212,1.308-0.341,2.641-0.587,3.947l-0.771,3.918c-0.105,0.662-0.269,1.308-0.441,1.95l-0.488,1.94
				l-0.472,1.952c-0.168,0.647-0.391,1.276-0.579,1.918c-0.405,1.273-0.744,2.576-1.173,3.848l-1.358,3.792
				c-0.205,0.644-0.459,1.266-0.729,1.881l-0.776,1.864l-0.762,1.876c-0.265,0.621-0.579,1.217-0.862,1.829
				c-0.593,1.211-1.124,2.461-1.742,3.664l-1.913,3.583c-0.3,0.611-0.648,1.191-1.006,1.767l-1.046,1.744l-1.034,1.759
				c-0.358,0.576-0.755,1.127-1.128,1.694c-0.767,1.119-1.477,2.287-2.269,3.392l-2.423,3.286c-0.387,0.564-0.816,1.091-1.254,1.61
				l-1.291,1.582l-1.281,1.595c-0.436,0.525-0.91,1.011-1.36,1.521c-0.92,1.002-1.799,2.05-2.734,3.039l-2.87,2.904
				c-7.776,7.614-16.575,14.166-26.057,19.249l-1.767,0.982c-0.596,0.31-1.208,0.582-1.81,0.878
				c-1.209,0.59-2.416,1.179-3.619,1.766c-1.235,0.522-2.467,1.044-3.695,1.563c-0.618,0.255-1.221,0.558-1.85,0.778l-1.88,0.682
				c-4.976,1.962-10.12,3.318-15.266,4.58c-2.6,0.481-5.173,1.147-7.795,1.456c-1.306,0.187-2.606,0.421-3.914,0.59
				c-1.314,0.128-2.626,0.256-3.933,0.383l-1.964,0.208l-1.963,0.086c-1.312,0.066-2.619,0.133-3.922,0.199
				c-1.303,0.042-2.596-0.008-3.893,0.004c-1.293-0.02-2.599,0.057-3.876-0.059c-10.279-0.439-20.306-2.014-29.737-4.806
				c-9.425-2.798-18.294-6.619-26.398-11.188c-16.228-9.174-29.114-21.369-38.547-33.684c-1.133-1.573-2.345-3.068-3.396-4.631
				c-1.052-1.567-2.085-3.108-3.101-4.623c-0.941-1.564-1.866-3.101-2.773-4.608c-0.914-1.511-1.661-3.067-2.49-4.552
				c-3.119-6.023-5.688-11.773-7.503-17.158c-3.83-10.722-5.472-19.68-6.307-25.808c-0.512-3.063-0.641-5.447-0.805-7.049
				c-0.153-1.605-0.231-2.435-0.231-2.435"/>
		</g>
	</g>
</g>
<line fill="none" stroke="#9D9D9C" stroke-width="12" stroke-miterlimit="10" x1="77.945" y1="332.446" x2="77.945" y2="47.389"/>
<circle fill="#0065BD" cx="247.549" cy="331.445" r="18.425"/>
<circle fill="#0065BD" cx="191.505" cy="331.445" r="18.425"/>
<circle fill="#0065BD" cx="134.912" cy="331.445" r="18.425"/>
<circle fill="#0065BD" cx="77.945" cy="331.445" r="18.425"/>
<circle fill="#0065BD" cx="77.945" cy="47.388" r="38.349"/>
<text transform="matrix(1 0 0 1 245.4844 336.0991)" fill="#FFFFFF" font-family="'TUMNeueHelvetica-Bold'" font-size="14">I</text>
<text transform="matrix(1 0 0 1 187.3755 336.0991)" fill="#FFFFFF" font-family="'TUMNeueHelvetica-Bold'" font-size="14">II</text>
<text transform="matrix(1 0 0 1 128.7168 336.0991)" fill="#FFFFFF" font-family="'TUMNeueHelvetica-Bold'" font-size="14">III</text>
<text transform="matrix(1 0 0 1 71.4697 336.0991)" fill="#FFFFFF" font-family="'TUMNeueHelvetica-Bold'" font-size="14">IV</text>
<rect x="3" y="321.115" fill="none" width="53" height="7.5"/>
<text transform="matrix(1 0 0 1 2.9995 328.2549)" fill="#0065BD" font-family="'TUMNeueHelvetica-Bold'" font-size="10">Milestones</text>
<text transform="matrix(1 0 0 1 57.5962 43.6392)"><tspan x="0" y="0" fill="#FFFFFF" font-family="'TUMNeueHelvetica-Bold'" font-size="14">FINAL</tspan><tspan x="-8.176" y="16.8" fill="#FFFFFF" font-family="'TUMNeueHelvetica-Bold'" font-size="14">POSTER</tspan></text>
<circle fill="#23313D" cx="291.797" cy="422.111" r="15.59"/>
<text transform="matrix(0.7071 0.7071 -0.7071 0.7071 285.5356 422.9233)" fill="#FFFFFF" font-family="'TUMNeueHelvetica-Bold'" font-size="14">4</text>
<rect x="228.5" y="433.557" transform="matrix(0.7071 0.7071 -0.7071 0.7071 391.8851 -63.534)" fill="none" width="88.269" height="15.435"/>
<text transform="matrix(0.7071 0.7071 -0.7071 0.7071 256.2905 422.147)" font-family="'TUMNeueHelvetica-Regular'" font-size="8">thinking aloud</text>
<circle fill="#23313D" cx="252.13" cy="462.111" r="15.59"/>
<text transform="matrix(0.7071 0.7071 -0.7071 0.7071 245.8687 462.9233)" fill="#FFFFFF" font-family="'TUMNeueHelvetica-Bold'" font-size="14">9</text>
<rect x="188.833" y="473.557" transform="matrix(0.7071 0.7071 -0.7071 0.7071 408.5511 -23.769)" fill="none" width="88.269" height="15.435"/>
<text transform="matrix(0.7071 0.7071 -0.7071 0.7071 210.0278 455.5513)" font-family="'TUMNeueHelvetica-Regular'" font-size="8">heuristic evaluation</text>
<circle fill="#23313D" cx="212.31" cy="501.84" r="15.59"/>
<text transform="matrix(0.7071 0.7071 -0.7071 0.7071 202.6709 499.2124)" fill="#FFFFFF" font-family="'TUMNeueHelvetica-Bold'" font-size="14">14</text>
<rect x="149.012" y="513.286" transform="matrix(0.7071 0.7071 -0.7071 0.7071 424.9803 16.0248)" fill="none" width="88.269" height="15.435"/>
<text transform="matrix(0.7071 0.7071 -0.7071 0.7071 168.7368 493.8091)"><tspan x="0" y="0" font-family="'TUMNeueHelvetica-Regular'" font-size="8">understanding users</tspan><tspan x="0.448" y="9.599" font-family="'TUMNeueHelvetica-Regular'" font-size="8">experimental design</tspan></text>
<circle fill="#23313D" cx="172.56" cy="541.84" r="15.59"/>
<text transform="matrix(0.7071 0.7071 -0.7071 0.7071 162.7959 539.1499)" fill="#FFFFFF" font-family="'TUMNeueHelvetica-Bold'" font-size="14">18</text>
<rect x="109.262" y="553.286" transform="matrix(0.7071 0.7071 -0.7071 0.7071 441.6221 55.8485)" fill="none" width="88.269" height="15.435"/>
<text transform="matrix(0.7071 0.7071 -0.7071 0.7071 138.5239 543.3462)"><tspan x="0" y="0" font-family="'TUMNeueHelvetica-Regular'" font-size="8">experimental </tspan><tspan x="-0.448" y="9.6" font-family="'TUMNeueHelvetica-Regular'" font-size="8">requirements</tspan></text>
<circle fill="#3C87C8" cx="576.649" cy="146.391" r="15.59"/>
<text transform="matrix(0.7071 0.7071 -0.7071 0.7071 567.5518 143.6177)" fill="#FFFFFF" font-family="'TUMNeueHelvetica-Bold'" font-size="14">16</text>
<rect x="513.352" y="157.836" transform="matrix(0.7071 0.7071 -0.7071 0.7071 280.3486 -345.713)" fill="none" width="88.27" height="15.436"/>
<text transform="matrix(0.7071 0.7071 -0.7071 0.7071 536.9541 142.2378)" font-family="'TUMNeueHelvetica-Regular'" font-size="8">model interaction</text>
<circle fill="#3C87C8" cx="536.982" cy="186.391" r="15.591"/>
<text transform="matrix(0.7071 0.7071 -0.7071 0.7071 527.5518 183.604)" fill="#FFFFFF" font-family="'TUMNeueHelvetica-Bold'" font-size="14">12</text>
<rect x="473.685" y="197.837" transform="matrix(0.7071 0.7071 -0.7071 0.7071 297.0225 -305.9516)" fill="none" width="88.268" height="15.435"/>
<text transform="matrix(0.7071 0.7071 -0.7071 0.7071 500.3281 185.2778)" font-family="'TUMNeueHelvetica-Regular'" font-size="8">style prototype</text>
<circle fill="#3C87C8" cx="497.162" cy="226.119" r="15.591"/>
<text transform="matrix(0.7071 0.7071 -0.7071 0.7071 490.9004 226.9312)" fill="#FFFFFF" font-family="'TUMNeueHelvetica-Bold'" font-size="14">7</text>
<circle fill="#23313D" cx="77.945" cy="192.975" r="15.591"/>
<text transform="matrix(1 0 0 1 69.1611 197.9404)" fill="#FFFFFF" font-family="'TUMNeueHelvetica-Bold'" font-size="14">19</text>
<rect x="433.865" y="237.565" transform="matrix(0.7071 0.7071 -0.7071 0.7071 313.4517 -266.1573)" fill="none" width="88.268" height="15.435"/>
<text transform="matrix(0.7071 0.7071 -0.7071 0.7071 455.4785 219.978)" font-family="'TUMNeueHelvetica-Regular'" font-size="8">redesign prototype</text>
<circle fill="#3C87C8" cx="457.412" cy="266.119" r="15.591"/>
<text transform="matrix(0.7071 0.7071 -0.7071 0.7071 451.1504 266.9312)" fill="#FFFFFF" font-family="'TUMNeueHelvetica-Bold'" font-size="14">2</text>
<rect x="394.115" y="277.565" transform="matrix(0.7071 0.7071 -0.7071 0.7071 330.0935 -226.3332)" fill="none" width="88.268" height="15.435"/>
<text transform="matrix(0.7071 0.7071 -0.7071 0.7071 413.373 257.6226)"><tspan x="0" y="0" font-family="'TUMNeueHelvetica-Regular'" font-size="8">user goals, personas</tspan><tspan x="12.146" y="9.6" font-family="'TUMNeueHelvetica-Regular'" font-size="8">and scenarios</tspan></text>
<circle fill="#2F5F84" cx="462.983" cy="412.358" r="15.591"/>
<text transform="matrix(0.7071 -0.7071 0.7071 0.7071 463.7959 418.6206)" fill="#FFFFFF" font-family="'TUMNeueHelvetica-Bold'" font-size="14">3</text>
<rect x="438.013" y="423.805" transform="matrix(0.7071 -0.7071 0.7071 0.7071 -163.915 467.3095)" fill="none" width="88.268" height="15.435"/>
<text transform="matrix(0.7071 -0.7071 0.7071 0.7071 460.4023 450.481)" font-family="'TUMNeueHelvetica-Regular'" font-size="8">paper prototype</text>
<circle fill="#2F5F84" cx="502.983" cy="452.025" r="15.59"/>
<text transform="matrix(0.7071 -0.7071 0.7071 0.7071 503.7959 458.2866)" fill="#FFFFFF" font-family="'TUMNeueHelvetica-Bold'" font-size="14">8</text>
<rect x="478.013" y="463.471" transform="matrix(0.7071 -0.7071 0.7071 0.7071 -180.2471 507.2219)" fill="none" width="88.27" height="15.436"/>
<text transform="matrix(0.7071 -0.7071 0.7071 0.7071 494.6953 495.855)" font-family="'TUMNeueHelvetica-Regular'" font-size="8">HiFi paper prototype</text>
<circle fill="#2F5F84" cx="542.711" cy="491.845" r="15.59"/>
<text transform="matrix(0.7071 -0.7071 0.7071 0.7071 540.335 501.2964)" fill="#FFFFFF" font-family="'TUMNeueHelvetica-Bold'" font-size="14">13</text>
<rect x="517.741" y="503.291" transform="matrix(0.7071 -0.7071 0.7071 0.7071 -196.7681 546.9773)" fill="none" width="88.27" height="15.436"/>
<text transform="matrix(0.7071 -0.7071 0.7071 0.7071 539.7646 530.3354)" font-family="'TUMNeueHelvetica-Regular'" font-size="8">HTML prototype</text>
<circle fill="#2F5F84" cx="582.711" cy="531.595" r="15.59"/>
<text transform="matrix(0.7071 -0.7071 0.7071 0.7071 580.7725 540.9839)" fill="#FFFFFF" font-family="'TUMNeueHelvetica-Bold'" font-size="14">17</text>
<rect x="557.742" y="543.041" transform="matrix(0.7071 -0.7071 0.7071 0.7071 -213.1602 586.8977)" fill="none" width="88.269" height="15.435"/>
<text transform="matrix(0.7071 -0.7071 0.7071 0.7071 574.0566 575.7925)" font-family="'TUMNeueHelvetica-Regular'" font-size="8">HiFi HTML prototype</text>
<circle fill="#77C4D3" cx="208.799" cy="145.931" r="15.591"/>
<text transform="matrix(0.7071 -0.7071 0.7071 0.7071 206.3594 155.459)" fill="#FFFFFF" font-family="'TUMNeueHelvetica-Bold'" font-size="14">15</text>
<rect x="185.633" y="157.377" transform="matrix(0.7071 -0.7071 0.7071 0.7071 -49.443 210.821)" fill="none" width="88.268" height="15.435"/>
<text transform="matrix(0.7071 -0.7071 0.7071 0.7071 209.7539 182.3228)"><tspan x="0" y="0" font-family="'TUMNeueHelvetica-Regular'" font-size="8">reflections and</tspan><tspan x="-0.292" y="9.6" font-family="'TUMNeueHelvetica-Regular'" font-size="8">aiming forward</tspan></text>
<circle fill="#77C4D3" cx="250.603" cy="185.598" r="15.59"/>
<text transform="matrix(0.7071 -0.7071 0.7071 0.7071 248.1016 194.6123)" fill="#FFFFFF" font-family="'TUMNeueHelvetica-Bold'" font-size="14">11</text>
<rect x="225.633" y="197.043" transform="matrix(0.7071 -0.7071 0.7071 0.7071 -65.775 250.7277)" fill="none" width="88.27" height="15.436"/>
<text transform="matrix(0.7071 -0.7071 0.7071 0.7071 249.542 222.2017)"><tspan x="0" y="0" font-family="'TUMNeueHelvetica-Regular'" font-size="8">interaction and</tspan><tspan x="-5.328" y="9.6" font-family="'TUMNeueHelvetica-Regular'" font-size="8">design framework</tspan></text>
<circle fill="#77C4D3" cx="290.332" cy="225.418" r="15.59"/>
<text transform="matrix(0.7071 -0.7071 0.7071 0.7071 291.1445 231.6802)" fill="#FFFFFF" font-family="'TUMNeueHelvetica-Bold'" font-size="14">6</text>
<rect x="265.361" y="236.864" transform="matrix(0.7071 -0.7071 0.7071 0.7071 -82.296 290.4831)" fill="none" width="88.27" height="15.436"/>
<text transform="matrix(0.7071 -0.7071 0.7071 0.7071 283.5107 267.7832)"><tspan x="0" y="0" font-family="'TUMNeueHelvetica-Regular'" font-size="8">use cases, usability </tspan><tspan x="-1.037" y="9.599" font-family="'TUMNeueHelvetica-Regular'" font-size="8">goals and principles</tspan></text>
<circle fill="#77C4D3" cx="330.332" cy="265.168" r="15.59"/>
<text transform="matrix(0.7071 -0.7071 0.7071 0.7071 331.1445 271.4302)" fill="#FFFFFF" font-family="'TUMNeueHelvetica-Bold'" font-size="14">1</text>
<rect x="307.272" y="278.525" transform="matrix(0.7071 -0.7071 0.7071 0.7071 -99.48 332.3168)" fill="none" width="88.269" height="15.435"/>
<text transform="matrix(0.7071 -0.7071 0.7071 0.7071 324.2119 310.6514)" font-family="'TUMNeueHelvetica-Regular'" font-size="8">understanding users</text>
<rect x="14.548" y="185.155" fill="none" width="44.972" height="15.643"/>
<text transform="matrix(1 0 0 1 44.856 190.8667)"><tspan x="0" y="0" font-family="'TUMNeueHelvetica-Regular'" font-size="8">final</tspan><tspan x="-21.784" y="9.6" font-family="'TUMNeueHelvetica-Regular'" font-size="8">evaluation</tspan></text>
<g>
	<path fill="none" d="M388.071,40.981"/>
</g>
<g>
	<path fill="none" d="M693,321.948"/>
</g>
<g>
	<path fill="none" d="M106.212,324.445"/>
</g>
<g>
	<path fill="none" d="M389.677,40.981"/>
</g>
<text transform="matrix(0.7164 -0.6976 0.6976 0.7164 106.0127 204.7852)" fill="#77C4D3" font-family="'TUMNeueHelvetica-Bold'" font-size="36" letter-spacing="7">ANALYSIS</text>
<text transform="matrix(0.7106 0.7036 -0.7036 0.7106 536.5117 67.1763)" fill="#3C87C8" font-family="'TUMNeueHelvetica-Bold'" font-size="36" letter-spacing="7">DESIGN</text>
<text transform="matrix(0.7117 0.7025 -0.7025 0.7117 11.1802 493.856)" fill="#23313D" font-family="'TUMNeueHelvetica-Bold'" font-size="36" letter-spacing="7">EVALUATION</text>
<text transform="matrix(0.7289 -0.6846 0.6846 0.7289 539.4004 664.7749)"><tspan x="0" y="0" fill="#3C87C8" font-family="'TUMNeueHelvetica-Bold'" font-size="36" letter-spacing="7">IMPLEMEN</tspan><tspan x="37.53" y="43.199" fill="#3C87C8" font-family="'TUMNeueHelvetica-Bold'" font-size="36" letter-spacing="7">TATION</tspan></text>
<circle fill="#A8A8A8" cx="391.181" cy="342.992" r="42.53"/>
<text transform="matrix(1 0 0 1 372.2959 341.5425)" fill="#FFFFFF" font-family="'TUMNeueHelvetica-Bold'" font-size="14">PREP</text>
<rect x="371.784" y="346.742" fill="none" width="38.793" height="8.621"/>
<text transform="matrix(1 0 0 1 374.3652 352.4526)" font-family="'TUMNeueHelvetica-Regular'" font-size="8">get ready</text>
<path fill="none" stroke="#A8A8A8" stroke-width="12" stroke-miterlimit="10" d="M396.375,379.115
	c-103.375,7.667-88.598-15-91.984-48.813"/>
<path fill="#A8A8A8" d="M325.878,371.889"/>
<polyline fill="#FFFFFF" points="295.569,337.444 304.444,332.444 313.158,337.597 313.212,332.48 304.444,327.294 295.569,332.294 
	"/>
<polyline fill="#FFFFFF" points="339.382,387.973 335.447,378.578 341.577,370.521 336.5,369.874 330.332,377.98 334.267,387.375 
	"/>
<polyline fill="#FFFFFF" points="379.024,461.659 374.024,452.784 379.178,444.07 374.061,444.016 368.875,452.784 373.875,461.659 
	"/>
<polyline fill="#FFFFFF" points="379.024,517.94 374.024,509.065 379.178,500.351 374.061,500.297 368.875,509.065 373.875,517.94 
	"/>
<polyline fill="#FFFFFF" points="379.024,574.69 374.024,565.815 379.178,557.101 374.061,557.047 368.875,565.815 373.875,574.69 
	"/>
<polyline fill="#FFFFFF" points="379.024,631.065 374.024,622.19 379.178,613.476 374.061,613.422 368.875,622.19 373.875,631.065 
	"/>
<polyline fill="#FFFFFF" points="386.226,229.886 391.226,238.761 386.072,247.475 391.189,247.529 396.375,238.761 
	391.375,229.886 "/>
<polyline fill="#FFFFFF" points="386.226,173.605 391.226,182.48 386.072,191.194 391.189,191.248 396.375,182.48 391.375,173.605 
	"/>
<polyline fill="#FFFFFF" points="386.226,116.855 391.226,125.73 386.072,134.444 391.189,134.498 396.375,125.73 391.375,116.855 
	"/>
<polyline fill="#FFFFFF" points="386.226,60.48 391.226,69.355 386.072,78.069 391.189,78.123 396.375,69.355 391.375,60.48 "/>
<polyline fill="#FFFFFF" points="498.259,334.544 489.384,339.544 480.67,334.391 480.616,339.508 489.384,344.694 498.259,339.694 
	"/>
<polyline fill="#FFFFFF" points="554.54,334.544 545.665,339.544 536.951,334.391 536.897,339.508 545.665,344.694 554.54,339.694 
	"/>
<polyline fill="#FFFFFF" points="611.29,334.544 602.415,339.544 593.701,334.391 593.647,339.508 602.415,344.694 611.29,339.694 
	"/>
<polyline fill="#FFFFFF" points="667.665,334.544 658.79,339.544 650.076,334.391 650.022,339.508 658.79,344.694 667.665,339.694 
	"/>
</svg>
